<svg viewBox="0 0 100 32" version="1.1" xmlns="http://www.w3.org/2000/svg" preserveAspectRatio="none" class="SparkLine__Svg-sc-9wg5ja-0 hReQUL"><path d="M 0,22.659274014642236 C 4.071262566842511e-18,22.725762778091045 -6.1068938502637656e-18,22.95847345016188 0,22.991717831886284 C 2.0356312834212554e-18,23.02496221361069 -0.20000000000000004,23.1246953587839 0,22.82549592326426 C 0.19999999999999998,22.52629648774462 0.8,21.761675708083313 1,21.49572065428808 C 1.2,21.229765600492843 1,21.728431326358912 1,21.49572065428808 C 1,21.263009982217245 0.8,20.465144820831537 1,20.332167293933917 C 1.2,20.199189767036298 1.8,20.56487796600475 2,20.830833019799986 C 2.2,21.09678807359522 2,21.46247627256367 2,21.6619425629101 C 2,21.861408853256528 1.8,22.094119525327358 2,21.828164471532123 C 2.2,21.562209417736888 2.8,20.664611111177962 3,20.332167293933917 C 3.2,19.999723476689873 3,20.465144820831533 3,20.165945385311893 C 3,19.866745949792254 2.8,19.068880788406545 3,18.836170116335712 C 3.2,18.603459444264878 3.8,19.068880788406542 4,19.002392024957732 C 4.2,18.935903261508923 4,18.570215062540473 4,18.503726299091664 C 4,18.437237535642854 3.8,19.002392024957732 4,18.669948207713688 C 4.2,18.337504390469643 4.8,17.074217884942268 5,16.841507212871434 C 5.2,16.6087965408006 5,17.340172938737503 5,17.506394847359527 C 5,17.67261675598155 4.8,17.60612799253274 5,17.67261675598155 C 5.2,17.73910551943036 5.8,18.038304954950004 6,17.838838664603575 C 6.2,17.639372374257146 6,16.775018449422628 6,16.675285304249414 C 6,16.5755521590762 5.8,17.340172938737506 6,17.340172938737506 C 6.2,17.340172938737506 6.8,16.64204092252501 7,16.675285304249414 C 7.2,16.70852968597382 7,17.473150465635122 7,17.506394847359527 C 7,17.53963922908393 6.8,16.907995976320244 7,16.841507212871434 C 7.2,16.775018449422625 7.8,17.140706648391077 8,17.173951030115482 C 8.2,17.207195411839887 7.8,16.974484739769053 8,17.00772912149346 C 8.2,17.040973503217863 8.8,17.340172938737506 9,17.340172938737506 C 9.2,17.340172938737506 9,17.273684175288697 9,17.00772912149346 C 9,16.74177406769822 8.8,15.943908906312512 9,16.01039766976132 C 9.2,16.07688643321013 9.8,16.974484739769057 10,17.340172938737506 C 10.2,17.705861137705956 10,17.73910551943036 10,17.838838664603575 C 10,17.93857180977679 9.8,17.80559428287917 10,17.838838664603575 C 10.2,17.87208304632798 10.8,17.93857180977679 11,18.0050605732256 C 11.2,18.07154933667441 11,18.271015627020834 11,18.17128248184762 C 11,18.071549336674405 10.8,17.53963922908393 11,17.506394847359527 C 11.2,17.473150465635122 11.8,17.80559428287917 12,18.0050605732256 C 12.2,18.204526863572028 12,18.40399315391845 12,18.503726299091664 C 12,18.603459444264878 11.8,18.603459444264878 12,18.503726299091664 C 12.2,18.40399315391845 12.8,18.0050605732256 13,18.0050605732256 C 13.2,18.0050605732256 13,18.47048191736726 13,18.503726299091664 C 13,18.53697068081607 12.8,18.204526863572024 13,18.17128248184762 C 13.2,18.138038100123214 13.8,18.437237535642854 14,18.33750439046964 C 14.2,18.237771245296425 14,17.90532742805238 14,17.67261675598155 C 14,17.43990608391072 13.8,17.3069285570131 14,17.173951030115482 C 14.2,17.040973503217863 14.8,17.00772912149346 15,17.00772912149346 C 15.2,17.00772912149346 15,16.974484739769053 15,17.173951030115482 C 15,17.37341732046191 14.8,17.93857180977679 15,18.0050605732256 C 15.2,18.07154933667441 15.8,17.639372374257146 16,17.506394847359527 C 16.2,17.373417320461908 15.8,17.639372374257146 16,17.340172938737506 C 16.2,17.040973503217867 16.8,16.50906339562739 17,16.01039766976132 C 17.2,15.511731943895253 17,15.046310599753589 17,14.846844309407162 C 17,14.647378019060735 16.8,14.97982183630478 17,15.013066218029184 C 17.2,15.046310599753589 17.8,14.880088691131565 18,15.013066218029184 C 18.2,15.146043744926803 18,15.41199879872204 18,15.677953852517277 C 18,15.943908906312513 17.8,16.07688643321013 18,16.342841487005366 C 18.2,16.6087965408006 18.8,16.64204092252501 19,17.00772912149346 C 19.2,17.373417320461908 19,17.705861137705956 19,18.17128248184762 C 19,18.636703825989283 18.8,19.03563640668214 19,19.33483584220178 C 19.2,19.63403527772142 19.8,19.467813369099396 20,19.667279659445825 C 20.2,19.866745949792254 20,20.265678530485108 20,20.332167293933917 C 20,20.398656057382727 19.8,20.099456621863087 20,19.999723476689873 C 20.2,19.89999033151666 20.8,20.060977388147307 21,19.833501568067845 C 21.2,19.606025747988383 21,18.857208782857647 21,18.86234437629257 C 21,18.86747996972749 20.8,19.59335682618915 21,19.859179535242454 C 21.2,20.125002244295757 21.8,20.09177440566409 22,20.191457921559085 C 22.2,20.29114143745408 22,20.390824953349085 22,20.35759711471743 C 22,20.324369276085772 21.8,20.125002244295793 22,20.025318728400798 C 22.2,19.925635212505803 22.8,19.792723857979126 23,19.859179535242454 C 23.2,19.92563521250578 23,20.257913598822434 23,20.35759711471743 C 23,20.457280630612424 22.8,20.390824953349096 23,20.35759711471743 C 23.2,20.32436927608576 23.8,20.224685760190752 24,20.191457921559085 C 24.2,20.158230082927417 23.8,20.09177440566409 24,20.191457921559085 C 24.2,20.29114143745408 24.8,20.623419823770718 25,20.689875501034056 C 25.2,20.756331178297394 25,20.756331178297415 25,20.52373630787577 C 25,20.291141437454122 24.8,19.626584664820818 25,19.526901148925823 C 25.2,19.42721763303083 25.8,19.859179535242475 26,20.025318728400798 C 26.2,20.19145792155912 26,19.792723857979155 26,20.35759711471743 C 26,20.922470371455702 25.8,22.417723109880548 26,22.84968501209217 C 26.2,23.281646914303792 26.8,22.351267432617224 27,22.517406625775543 C 27.2,22.68354581893386 27,23.24841907567215 27,23.68038097788377 C 27,24.112342880095394 26.8,23.813292332410413 27,24.677216136833657 C 27.2,25.5411399412569 27.8,27.634493775051702 28,28 C 28.2,28.365506224948298 28,27.003164841050094 28,26.504747261575144 C 28,26.006329682100194 27.8,25.806962650310226 28,25.507912102625255 C 28.2,25.208861554940285 28.8,25.175633716308607 29,25.009494523150288 C 29.2,24.84335532999197 29,24.843355329991965 29,24.677216136833657 C 29,24.51107694367535 28.8,24.344937750517047 29,24.17879855735874 C 29.2,24.01265936420043 29.8,23.813292332410455 30,23.846520171042112 C 30.2,23.87974800967377 30,24.94303884588697 30,24.344937750517026 C 30,23.74683665514708 29.8,21.25474875777235 30,20.856014694192396 C 30.2,20.45728063061244 30.8,21.852849853142306 31,22.351267432617256 C 31.2,22.849685012092205 31,23.015824205250514 31,23.34810259156714 C 31,23.680380977883768 30.8,23.481013946093782 31,24.0126593642004 C 31.2,24.544304782307016 31.8,25.873418327573575 32,26.006329682100226 C 32.2,26.139241036626878 32,25.042722361781955 32,24.677216136833657 C 32,24.31170991188536 31.8,24.17879855735874 32,24.17879855735874 C 32.2,24.17879855735874 32.8,24.74367181409698 33,24.677216136833657 C 33.2,24.610760459570333 32.8,23.91297584830544 33,23.846520171042112 C 33.2,23.780064493778784 33.8,24.47784910504369 34,24.344937750517026 C 34.2,24.212026395990364 34,23.5474696233571 34,23.1819633984088 C 34,22.816457173460503 33.8,22.68354581893385 34,22.517406625775543 C 34.2,22.351267432617234 34.8,22.517406625775575 35,22.351267432617256 C 35.2,22.185128239458937 35,21.753166337247272 35,21.686710659983945 C 35,21.620254982720617 34.8,21.95253336903729 35,22.018989046300625 C 35.2,22.08544472356396 35.8,22.052216884932292 36,22.018989046300625 C 36.2,21.985761207668958 36,21.852849853142285 36,21.852849853142285 C 36,21.852849853142285 35.8,22.218356078090604 36,22.018989046300625 C 36.2,21.819622014510646 36.8,21.188293080509034 37,20.856014694192396 C 37.2,20.523736307875758 37,20.78955901692906 37,20.35759711471743 C 37,19.925635212505796 36.8,18.762660860397553 37,18.696205183134225 C 37.2,18.629749505870898 37.8,19.759496019347484 38,20.025318728400798 C 38.2,20.29114143745411 38,20.424052791980763 38,20.025318728400798 C 38,19.626584664820832 37.8,18.696205183134236 38,18.031648410500967 C 38.2,17.3670916378677 38.8,17.03481325155108 39,16.70253486523445 C 39.2,16.370256478917824 39,16.60285134933947 39,16.370256478917824 C 39,16.137661608496177 38.8,16.204117285759494 39,15.539560513126226 C 39.2,14.875003740492957 39.8,13.08070045438315 40,13.04747261575148 C 40.2,13.014244777119812 40,15.07437077228291 40,15.373421319967882 C 40,15.672471867652854 39.8,14.974687256387961 40,14.542725354176339 C 40.2,14.110763451964717 40.8,13.479434517963082 41,13.213611808909768 C 41.2,12.947789099856454 40.8,12.947789099856454 41,13.213611808909768 C 41.2,13.479434517963082 41.8,13.977852097438054 42,14.542725354176339 C 42.2,15.107598610914623 42,16.929944142312138 42,16.037978092601193 C 42,15.14601204289025 41.8,11.375293288111228 42,10.082895105621622 C 42.2,8.790496923132016 42.8,9.64357490354895 43,9.575987180153163 C 43.2,9.508399456757376 43,9.880131935434271 43,9.744956488642686 C 43,9.6097810418511 42.8,9.03528539298683 43,8.900109946195235 C 43.2,8.764934499403639 43.8,8.866316084497319 44,9.069079254684702 C 44.2,9.271842424872085 44,9.913925797132153 44,9.913925797132153 C 44,9.913925797132153 43.8,9.170460839778395 44,9.069079254684702 C 44.2,8.96769766959101 44.8,9.238048563174203 45,9.407017871663694 C 45.2,9.575987180153184 45,9.778750350340568 45,9.913925797132153 C 45,10.049101243923738 44.8,10.218070552413218 45,10.082895105621622 C 45.2,9.947719658830026 45.8,9.57598718015315 46,9.238048563174171 C 46.2,8.900109946195192 46,8.697346776007798 46,8.393202020726722 C 46,8.089057265445646 45.8,8.021469542049868 46,7.717324786768793 C 46.2,7.413180031487717 46.8,7.142829137904525 47,6.872478244321343 C 47.2,6.602127350738161 47,6.669715074133969 47,6.365570318852883 C 47,6.061425563571796 46.8,5.554517638103305 47,5.35175446791591 C 47.2,5.148991297728515 47.8,5.2503728828222185 48,5.35175446791591 C 48.2,5.453136053009602 48,6.1290132869675515 48,5.858662393384369 C 48,5.588311499801187 47.8,4.135175446791585 48,4 C 48.2,3.8648245532084142 48.8,4.811052680749567 49,5.182785159426441 C 49.2,5.554517638103315 48.8,5.5545176381032935 49,5.858662393384369 C 49.2,6.162807148665445 49.8,6.635921212436022 50,6.70350893583182 C 50.2,6.771096659227618 50,6.196601010363361 50,6.196601010363361 C 50,6.196601010363361 49.8,6.737302797529714 50,6.70350893583182 C 50.2,6.669715074133927 50.8,6.162807148665477 51,6.027631701873892 C 51.2,5.8924562550823065 51,5.8924562550823065 51,6.027631701873892 C 51,6.162807148665477 50.8,6.399364180550744 51,6.70350893583182 C 51.2,7.007653691112896 51.8,7.379386169789781 52,7.54835547827927 C 52.2,7.71732478676876 52,7.54835547827927 52,7.54835547827927 C 52,7.54835547827927 51.8,7.514561616581366 52,7.54835547827927 C 52.2,7.582149339977175 52.8,7.649737063372995 53,7.717324786768793 C 53.2,7.784912510164591 53,7.818706371862463 53,7.886294095258261 C 53,7.953881818654059 52.8,8.021469542049878 53,8.055263403747784 C 53.2,8.089057265445689 53.8,8.089057265445689 54,8.055263403747784 C 54.2,8.021469542049878 54,7.953881818654059 54,7.886294095258261 C 54,7.818706371862463 53.8,7.8187063718624845 54,7.717324786768793 C 54.2,7.615943201675101 54.8,7.6159432016750905 55,7.379386169789802 C 55.2,7.1428291379045135 55,6.737302797529735 55,6.534539627342351 C 55,6.331776457154967 54.8,6.297982595457085 55,6.365570318852883 C 55.2,6.433158042248681 55.8,6.433158042248671 56,6.872478244321343 C 56.2,7.311798446394015 56,8.224232712237264 56,8.562171329216243 C 56,8.900109946195222 55.8,8.494583605820445 56,8.562171329216243 C 56.2,8.629759052612041 56.8,8.731140637705744 57,8.900109946195235 C 57.2,9.069079254684725 57,9.373224009965801 57,9.407017871663694 C 57,9.440811733361587 56.8,9.001491531288904 57,9.069079254684702 C 57.2,9.1366669780805 57.8,9.744956488642686 58,9.744956488642686 C 58.2,9.744956488642686 57.8,9.271842424872096 58,9.069079254684702 C 58.2,8.866316084497308 58.8,8.900109946195203 59,8.731140637705712 C 59.2,8.562171329216222 59,8.258026573935147 59,8.224232712237253 C 59,8.190438850539358 58.8,8.494583605820445 59,8.562171329216243 C 59.2,8.629759052612041 59.8,8.46078974412255 60,8.562171329216243 C 60.2,8.663552914309935 60,8.866316084497319 60,9.069079254684702 C 60,9.271842424872085 59.8,9.542193318455269 60,9.575987180153163 C 60.2,9.609781041851058 60.8,9.373224009965757 61,9.238048563174171 C 61.2,9.102873116382586 61,8.93390380789313 61,8.900109946195235 C 61,8.86631608449734 60.8,8.96769766959101 61,9.069079254684702 C 61.2,9.170460839778395 61.8,9.3732240099658 62,9.407017871663694 C 62.2,9.440811733361588 62,9.035285392986788 62,9.238048563174171 C 62,9.440811733361555 61.8,10.184276690715324 62,10.420833722600612 C 62.2,10.6573907544859 62.8,10.48842144599641 63,10.420833722600612 C 63.2,10.353245999204814 63,10.285658275809006 63,10.082895105621622 C 63,9.880131935434239 62.8,9.54219331845528 63,9.407017871663694 C 63.2,9.271842424872109 63.8,10.420833722600634 64,9.407017871663694 C 64.2,8.393202020726754 64,4.878640404145366 64,4.337938616978991 C 64,3.7972368298126162 63.8,6.466951903946532 64,6.70350893583182 C 64.2,6.940065967717109 64.8,5.554517638103326 65,5.520723776405433 C 65.2,5.486929914707539 65,6.162807148665477 65,6.534539627342351 C 65,6.906272106019225 64.8,7.2104168613003115 65,7.379386169789802 C 65.2,7.5483554782792925 65.8,7.514561616581398 66,7.379386169789802 C 66.2,7.244210722998206 65.8,6.9738598294150025 66,6.70350893583182 C 66.2,6.433158042248638 66.8,6.027631701873892 67,6.027631701873892 C 67.2,6.027631701873892 67,6.737302797529725 67,6.70350893583182 C 67,6.669715074133916 66.8,5.824868531686465 67,5.858662393384369 C 67.2,5.892456255082274 67.8,4.865961607630892 68,6.872478244321343 C 68.2,8.878994881011794 68,14.252847041155519 68,15.891245576836624 C 68,17.52964411251773 67.8,15.329038812041988 68,15.06447092272687 C 68.2,14.79990303341175 68.8,14.568406130261028 69,14.568406130261028 C 69.2,14.568406130261028 69,14.766832047247354 69,15.06447092272687 C 69,15.362109798206385 68.8,15.825103604507875 69,16.056600507658608 C 69.2,16.288097410809343 69.8,16.023529521494186 70,16.221955438480535 C 70.2,16.420381355466883 70,16.751091217110815 70,17.048730092590343 C 70,17.34636896806987 69.8,17.544794885056216 70,17.710149815878168 C 70.2,17.87550474670012 70.8,17.710149815878147 71,17.8755047467001 C 71.2,18.04085967752205 71,18.37156953916597 71,18.536924469987923 C 71,18.702279400809875 70.8,18.60306644231668 71,18.70227940080985 C 71.2,18.80149235930302 71.8,18.999918276289364 72,19.03298926245376 C 72.2,19.066060248618157 72,18.9999182762894 72,18.867634331631834 C 72,18.735350386974268 71.8,18.5038534838235 72,18.371569539165936 C 72.2,18.23928559450837 72.8,18.272356580672792 73,18.20621460834401 C 73.2,18.140072636015226 73,18.107001649850808 73,18.040859677522025 C 73,17.974717705193243 72.8,17.974717705193267 73,17.8755047467001 C 73.2,17.77629178820693 73.8,17.610936857384967 74,17.544794885056184 C 74.2,17.4786529127274 73.8,17.743220802042533 74,17.544794885056184 C 74.2,17.346368968069836 74.8,16.916446147932746 75,16.55266530012445 C 75.2,16.188884452316152 75,15.75896163217908 75,15.725890646014694 C 75,15.692819659850308 74.8,16.221955438480567 75,16.38731036930252 C 75.2,16.55266530012447 75.8,16.850304175603966 76,16.55266530012445 C 76.2,16.25502642464493 76,15.395180784370803 76,14.89911599190494 C 76,14.403051199439078 75.8,14.2046252824527 76,14.072341337795134 C 76.2,13.940057393137568 76.8,14.171554296288333 77,14.237696268617116 C 77.2,14.303838240945899 77,14.171554296288313 77,14.403051199439046 C 77,14.634548102589779 76.8,15.295967825877602 77,15.395180784370782 C 77.2,15.494393742863961 77.8,14.965257964233723 78,14.89911599190494 C 78.2,14.832974019576158 78,15.130612895055652 78,15.06447092272687 C 78,14.998328950398086 77.8,14.436122185603462 78,14.568406130261028 C 78.2,14.700690074918594 78.8,15.626677687521525 79,15.725890646014694 C 79.2,15.825103604507863 79,15.130612895055652 79,15.06447092272687 C 79,14.998328950398086 78.8,15.097541908891266 79,15.395180784370782 C 79.2,15.692819659850297 79.8,16.221955438480535 80,16.55266530012445 C 80.2,16.883375161768363 80,16.784162203275212 80,17.048730092590343 C 80,17.313297981905475 79.8,17.842433760535712 80,17.8755047467001 C 80.2,17.908575732864485 80.8,17.313297981905443 81,17.214085023412274 C 81.2,17.114872064919105 81,17.214085023412306 81,17.379439954234257 C 81,17.54479488505621 80.8,18.107001649850808 81,18.040859677522025 C 81.2,17.974717705193243 81.8,17.147943051083512 82,17.048730092590343 C 82.2,16.949517134097174 82,17.4786529127274 82,17.544794885056184 C 82,17.610936857384967 81.8,17.511723898891823 82,17.379439954234257 C 82.2,17.247156009576692 82.8,16.98258812026154 83,16.88337516176836 C 83.2,16.78416220327518 82.8,16.916446147932746 83,16.88337516176836 C 83.2,16.850304175603974 83.8,16.817233189439598 84,16.71802023094643 C 84.2,16.61880727245326 84,16.585736286288867 84,16.38731036930252 C 84,16.18888445231617 83.8,15.792032618343477 84,15.725890646014694 C 84.2,15.659748673685911 84.8,15.891245576836656 85,16.056600507658608 C 85.2,16.22195543848056 85,16.45345234163128 85,16.55266530012445 C 85,16.651878258617618 84.8,16.684949244782015 85,16.55266530012445 C 85.2,16.420381355466883 85.8,16.02352952149419 86,15.891245576836624 C 86.2,15.758961632179059 86,15.593606701357098 86,15.891245576836624 C 86,16.188884452316152 85.8,17.280226995741078 86,17.379439954234257 C 86.2,17.478652912727437 86.8,16.916446147932778 87,16.38731036930252 C 87.2,15.858174590672258 87,14.998328950398086 87,14.733761061082957 C 87,14.469193171767827 86.8,15.031399936562472 87,15.06447092272687 C 87.2,15.097541908891266 87.8,14.667619088754208 88,14.89911599190494 C 88.2,15.130612895055673 88,16.155813466151752 88,16.221955438480535 C 88,16.288097410809318 87.8,15.825103604507884 88,15.229825853548853 C 88.2,14.634548102589822 88.8,13.576276545329291 89,13.245566683685379 C 89.2,12.914856822041466 89,13.543205559164905 89,13.576276545329291 C 89,13.609347531493677 88.8,13.543205559164875 89,13.41092161450731 C 89.2,13.278637669849743 89.8,12.98099879437025 90,12.914856822041466 C 90.2,12.848714849712684 90,12.947927808205831 90,13.080211752863397 C 90,13.212495697520962 89.8,13.642418517658063 90,13.576276545329291 C 90.2,13.510134573000519 90.8,12.716430905055152 91,12.749501891219538 C 91.2,12.782572877383924 90.8,15.163683881220027 91,13.741631476151221 C 91.2,12.319579071082416 91.8,6.432943533820885 92,5.639239865875506 C 92.2,4.8455361979301275 92,8.946338482314564 92,9.773113136424328 C 92,10.599887790534092 91.8,9.574687219437982 92,9.773113136424328 C 92.2,9.971539053410675 92.8,10.732171735191667 93,10.765242721356064 C 93.2,10.79831370752046 93,9.839255108753143 93,9.938468067246312 C 93,10.03768102573948 92.8,11.393591458479472 93,11.261307513821906 C 93.2,11.12902356916434 93.8,9.706971164095568 94,9.277048343958487 C 94.2,8.847125523821406 94,9.04555144080772 94,9.111693413136503 C 94,9.177835385465286 93.8,9.376261302451656 94,9.6077582056024 C 94.2,9.839255108753143 94.8,10.103822998068274 95,10.269177928890224 C 95.2,10.434532859712174 95,10.401461873547767 95,10.434532859712153 C 95,10.467603845876539 94.8,10.302248915054587 95,10.434532859712153 C 95.2,10.566816804369719 95.8,10.765242721356065 96,11.095952582999978 C 96.2,11.42666244464389 96,11.724301320123415 96,12.088082167931713 C 96,12.451863015740011 95.8,12.61721794656195 96,12.914856822041466 C 96.2,13.212495697520982 96.8,13.642418517658074 97,13.576276545329291 C 97.2,13.510134573000508 97,12.947927808205852 97,12.584146960397554 C 97,12.220366112589256 96.8,11.922727237109752 97,11.757372306287802 C 97.2,11.592017375465852 97.8,11.724301320123416 98,11.757372306287802 C 98.2,11.790443292452188 98,11.757372306287781 98,11.922727237109731 C 98,12.088082167931681 97.8,12.484934001904374 98,12.584146960397554 C 98.2,12.683359918890734 98.8,12.286508084918061 99,12.418792029575627 C 99.2,12.551075974233193 99,13.080211752863429 99,13.245566683685379" stroke-width="1.7" class="SparkLine__Path-sc-9wg5ja-1 jTdHd"/></svg>