<svg viewBox="0 0 100 32" version="1.1" xmlns="http://www.w3.org/2000/svg" preserveAspectRatio="none" class="SparkLine__Svg-sc-9wg5ja-0 hReQUL"><path d="M 0,25.188627445257165 C 1.2373577857646934e-18,25.208835031422026 -2.587202642961809e-18,25.275581300875672 0,25.28966537608148 C 8.624008809872698e-19,25.30374945128729 -0.19999999999999998,25.270070141012503 0,25.259047821286213 C 0.19999999999999998,25.248025501559923 0.8,25.323957037452136 1,25.234553777450028 C 1.2,25.14515051744792 1,24.8793901418252 1,24.81203152127567 C 1,24.74467290072614 0.8,24.839587320591427 1,24.897760674702383 C 1.2,24.95593402881334 1.8,25.033702617993207 2,25.102898291830453 C 2.2,25.1720939656677 2,25.246188448272232 2,25.243739043888613 C 2,25.241289639504995 1.8,25.113920611556743 2,25.09065126991236 C 2.2,25.067381928267977 2.8,25.213733840189278 3,25.127392335666702 C 3.2,25.041050831144126 3,24.764268135795113 3,24.658943747299478 C 3,24.553619358803843 2.8,24.694460110861968 3,24.600770393188522 C 3.2,24.507080675515077 3.8,24.263364939344935 4,24.190495158932254 C 4.2,24.117625378519573 4,24.249893215235026 4,24.236421491125117 C 4,24.22294976701521 3.8,24.17028757276738 4,24.123136538382713 C 4.2,24.075985503998048 4.8,24.276224312358952 5,24.000666319201784 C 5.2,23.725108326044616 5,22.878226760408218 5,22.745346572596866 C 5,22.612466384785513 4.8,23.270743812883204 5,23.336265380145015 C 5.2,23.401786947406826 5.8,23.25727208877328 6,23.072954408905925 C 6.2,22.88863672903857 6,22.643696290676637 6,22.41467698080823 C 6,22.185657670939825 5.8,21.97011008518133 6,21.9278578595639 C 6.2,21.885605633946472 6.8,22.172185946829934 7,22.203415852721086 C 7.2,22.23464575861224 6.8,22.1385066365552 7,22.084007389019664 C 7.2,22.02950814148413 7.8,22.00378939545609 8,21.930919615043408 C 8.2,21.858049834630727 8,21.830494035315038 8,21.719658486956263 C 8,21.608822938597488 7.8,21.496150336950986 8,21.37674187324954 C 8.2,21.257333409548092 8.8,21.210182375163424 9,21.12261616844903 C 9.2,21.03504996173464 9,21.095672720229214 9,20.938910839677575 C 9,20.782148959125937 8.8,20.53292206309267 9,20.33880676569084 C 9.2,20.14469146828901 9.8,19.825044196226695 10,19.968334352668425 C 10.2,20.111624509110154 10,20.851956984059086 10,21.05525754789949 C 10,21.258558111739895 9.8,21.01239297118616 10,20.984837171870442 C 10.2,20.957281372554725 10.8,20.858692846114028 11,20.917478551320897 C 11.2,20.976264256527767 11,21.19977240653306 11,21.278765697904795 C 11,21.35775898927653 10.8,21.347961371742056 11,21.312445008179566 C 11.2,21.276928644617076 11.8,21.17772776708047 12,21.101183880092353 C 12.2,21.024639993104238 12,20.86236695268946 12,20.92972557323899 C 12,20.99708419378852 11.8,21.36510720242732 12,21.437976982840002 C 12.2,21.510846763252683 12.8,21.38041597982497 13,21.294074475302395 C 13.2,21.20773297077982 13,21.078526889543888 13,21.00626946022712 C 13,20.934012030910353 12.8,20.94932080830799 13,20.93278732871856 C 13.2,20.91625384912913 13.8,20.892372156388834 14,20.923602062279976 C 14.2,20.954831968171117 14,21.092610964749696 14,21.08893685817426 C 14,21.085262751598826 13.8,20.92054030680042 14,20.905231529402805 C 14.2,20.88992275200519 14.8,21.090161560366102 15,21.0123929711862 C 15.2,20.934624382006294 14.8,20.553129649257574 15,20.516388583503282 C 15.2,20.47964751774899 15.8,20.78031190583827 16,20.828687642414742 C 16.2,20.877063378991213 16,20.784598363509545 16,20.75826726638563 C 16,20.731936169261715 15.8,20.691520996932017 16,20.697032156795167 C 16.2,20.702543316658318 16.8,20.75949196857747 17,20.785823065701386 C 17.2,20.8121541628253 17,20.86420400597723 17,20.828687642414742 C 17,20.793171278852256 16.8,20.7411214357003 17,20.608241247888948 C 17.2,20.475361060077596 17.8,20.338806765690844 18,20.164286703357973 C 18.2,19.989766641025103 18,19.720332158826974 18,19.7356409362246 C 18,19.750949713622223 17.8,20.211437737742664 18,20.2408305903461 C 18.2,20.270223442949536 18.8,19.790140183760148 19,19.882605199241777 C 19.2,19.975070214723406 19,20.455765825008697 19,20.703155667754245 C 19,20.950545510499794 18.8,21.02525234420018 19,21.119554412969524 C 19.2,21.21385648173887 19.8,21.0883245070784 20,21.174666011600976 C 20.2,21.261007516123552 20,21.341837860782967 20,21.55126193558241 C 20,21.760686010381853 19.8,22.166062435870856 20,22.221786385598193 C 20.2,22.27751033532553 20.8,22.02767108819635 21,21.829881684219096 C 21.2,21.632092280241842 21,21.367963448619456 21,21.232839365711932 C 21,21.09771528280441 20.8,21.05001579893294 21,21.15426126968147 C 21.2,21.25850674043 21.8,21.65736339183811 22,21.754066719454585 C 22.2,21.85077004707106 22,21.615132191803035 22,21.637777907763848 C 22,21.66042362372466 21.8,21.917483102198844 22,21.86729529925865 C 22.2,21.817107496318457 22.8,21.478645849660808 23,21.386838893062887 C 23.2,21.295031936464966 22.8,21.354400435064928 23,21.408260516269042 C 23.2,21.462120597473156 23.8,21.663483855611283 24,21.656139299083453 C 24.2,21.648794742555623 24,21.51536863229997 24,21.37153773362989 C 24,21.227706834959807 23.8,20.98411237678665 24,20.936984805733044 C 24.2,20.889857234679436 24.8,21.059394081196917 25,21.135899878361858 C 25.2,21.2124056755268 25,21.32930653359485 25,21.319513791557743 C 25,21.309721049520636 24.8,21.142632388512407 25,21.086936168176326 C 25.2,21.031239947840245 25.8,20.979216005768073 26,21.04103268987734 C 26.2,21.102849373986608 26,21.285851240805144 26,21.39601958872266 C 26,21.506187936640174 25.8,21.035524272481503 26,21.591874429464923 C 26.2,22.148224586448343 26.8,23.783612506646023 27,24.177770373639767 C 27.2,24.57192824063351 27,23.591429944167675 27,23.56266376443365 C 27,23.533897584699627 26.8,23.891332669054197 27,24.033939474969646 C 27.2,24.176546280885095 27.8,24.082291138777936 28,24.2756977940109 C 28.2,24.46910444924386 28,24.256112309936647 28,25.000972751134466 C 28,25.745833192332285 27.8,27.82556678246394 28,28 C 28.2,28.17443321753606 28.8,26.483349077002302 29,25.873138838814768 C 29.2,25.262928600627234 29,25.15765662372827 29,24.948948809062323 C 29,24.740240994396377 28.8,25.000972751134494 29,24.829599765485032 C 29.2,24.65822677983557 29.8,24.25672435631397 30,24.092083880815018 C 30.2,23.927443405316065 29.8,23.98926008942532 30,24.00639738799027 C 30.2,24.02353468655522 30.8,24.887132124953055 31,24.177770373639767 C 31.2,23.46840862232648 31,20.79988641721347 31,20.459588631423827 C 31,20.119290845634183 30.8,22.060701954491606 31,22.476281444691544 C 31.2,22.891860934891483 31.8,22.347139659077158 32,22.537486082423523 C 32.2,22.72783250576989 32,23.28907903377184 32,23.42801356142337 C 32,23.5669480890749 31.8,23.402919659953305 32,23.232158720681166 C 32.2,23.061397781409028 32.8,22.65193875498226 33,22.574208865062676 C 33.2,22.49647897514309 33,22.732116830411098 33,22.843509271083246 C 33,22.954901711755394 32.8,23.16299748004403 33,23.13117106842342 C 33.2,23.09934465680281 33.8,22.722324088374 34,22.68437721298019 C 34.2,22.646430337586384 34,23.03201955529767 34,22.941436691454378 C 34,22.850853827611086 33.8,22.589510024495645 34,22.23146289376374 C 34.2,21.873415763031836 34.8,21.313393327784517 35,21.151201037794856 C 35.2,20.989008747805194 35,21.429682139475222 35,21.420501443815425 C 35,21.411320748155628 34.8,21.164054011718534 35,21.105297559495867 C 35.2,21.0465411072732 35.8,21.06061817395158 36,21.12671918270209 C 36.2,21.1928201914526 36,21.348279971291728 36,21.43580260324842 C 36,21.52332523520511 35.8,21.619416516444304 36,21.564332342485546 C 36.2,21.50924816852679 36.8,21.361744991592744 37,21.160381733454628 C 37.2,20.959018475316512 37,20.659727796807314 37,20.557516051794963 C 37,20.45530430678261 36.8,20.720932434539257 37,20.64932300839287 C 37.2,20.57771358224648 37.8,20.033604352809444 38,20.19946892106303 C 38.2,20.365333489316615 37.8,21.285239194427827 38,21.478645849660793 C 38.2,21.67205250489376 38.8,21.63961404689583 39,21.166502197227853 C 39.2,20.693390347559877 39,19.804699007691948 39,19.11308660132092 C 39,18.42147419494989 38.8,18.046901812030384 39,17.708440165372707 C 39.2,17.36997851871503 39.8,17.459949336180987 40,17.420778368032533 C 40.2,17.38160739988408 40,17.545635829005693 40,17.51258532463044 C 40,17.479534820255186 39.8,17.060283051791338 40,17.255525846156257 C 40.2,17.450768640521176 40.8,18.24214460639528 41,18.488799296455035 C 41.2,18.73545398651479 41,18.46737767324884 41,18.488799296455035 C 41,18.51022091966123 40.8,18.551840073318996 41,18.595907412486003 C 41.2,18.63997475165301 41.8,18.523073893584947 42,18.70913599229007 C 42.2,18.89519809099519 42,19.184696027467332 42,19.52621790601161 C 42,19.867739784555887 41.8,22.00377891708898 42,20.416745385011453 C 42.2,18.829711852933926 42.8,13.451427542265755 43,11.59105024562397 C 43.2,9.730672948982185 43,11.14162521263171 43,11.11485890180253 C 43,11.088092590973348 42.8,11.58918282858936 43,11.457218691478065 C 43.2,11.32525455436677 43.8,10.750712580056746 44,10.455038216246056 C 44.2,10.159363852435366 44,9.9228243613868 44,9.978846872424615 C 44,10.03486938346243 43.8,10.703404681847042 44,10.73515077143513 C 44.2,10.766896861023218 44.8,10.133842486295872 45,10.137577320365052 C 45.2,10.141312154434232 45,10.603186634323784 45,10.75382494178103 C 45,10.904463249238276 44.8,10.857155351028586 45,10.890768857651283 C 45.2,10.92438236427398 45.8,10.887034023582101 46,10.921892474894513 C 46.2,10.956750926206924 45.8,11.12232856994089 46,11.065061114213336 C 46.2,11.007793658485781 46.8,10.777478890885874 47,10.63555519625674 C 47.2,10.493631501627608 47,10.57268548942541 47,10.355442641067667 C 47,10.138199792709923 46.8,9.964530008492714 47,9.54934095446802 C 47.2,9.134151900443326 47.8,8.58886612634191 48,8.2794973709442 C 48.2,7.970128615546492 48,8.011834262652444 48,8.002497177479475 C 48,7.993160092306505 47.8,8.039845518171326 48,8.232811945079355 C 48.2,8.425778371987384 48.8,9.040158576368778 49,8.967329312019622 C 49.2,8.894500047670466 49,7.974485921960555 49,7.868665623333571 C 49,7.7628453247065865 48.8,8.358551358742028 49,8.438227818884702 C 49.2,8.517904279027375 49.8,8.143175927418882 50,8.267047924046935 C 50.2,8.390919920674987 50,8.977911341882292 50,9.057587802024965 C 50,9.137264262167639 49.8,8.664185280070571 50,8.665430224760298 C 50.2,8.666675169450025 50.8,9.037046214644429 51,9.063812525473598 C 51.2,9.090578836302766 51,9.03953610402387 51,8.79926177890614 C 51,8.558987453788408 50.8,7.928422968440579 51,7.8624408998849376 C 51.2,7.796458831329296 51.8,8.245261391976673 52,8.469351436127933 C 52.2,8.693441480279194 52,8.953634920432604 52,8.982891120641238 C 52,9.012147320849872 51.8,8.600070628549489 52,8.615632437171104 C 52.2,8.63119424579272 52.8,8.917531524430453 53,9.060700163749313 C 53.2,9.203868803068174 52.8,9.403682425769707 53,9.331475633765407 C 53.2,9.259268841761108 53.8,8.748841518972114 54,8.699666203727814 C 54.2,8.650490888483514 54,9.117345147132 54,9.085599057543911 C 54,9.053852967955823 53.8,8.730789820971083 54,8.540935755787377 C 54.2,8.351081690603671 54.8,8.201688327836164 55,8.13632873162538 C 55.2,8.070969135414595 55,8.244638919631829 55,8.214137774733455 C 55,8.183636629835082 54.8,8.313733349911754 55,7.983823007133511 C 55.2,7.653912664355267 55.8,6.758797432439993 56,6.564586060842236 C 56.2,6.37037468924448 56,6.906945850517746 56,7.01276614914473 C 56,7.1185864477717145 55.8,6.801125551890788 56,7.093687553977155 C 56.2,7.386249556063522 56.8,8.126369174107527 57,8.475576159576566 C 57.2,8.824783145045604 57,8.76813816166292 57,8.839722481322351 C 57,8.911306800981782 56.8,8.85466181759911 57,8.833497757873719 C 57.2,8.812333698148327 57.8,8.695931369658645 58,8.733902182695392 C 58.2,8.771872995732139 58,8.931848388362354 58,9.02335182305745 C 58,9.114855257752545 57.8,9.261136258795716 58,9.191419356170869 C 58.2,9.121702453546021 58.8,8.732657238005627 59,8.674767309933216 C 59.2,8.616877381860805 59,8.982268648296342 59,8.901969715808812 C 59,8.821670783321283 58.8,8.341744605430675 59,8.273272647495567 C 59.2,8.204800689560459 59.8,8.519149223717077 60,8.559609926133277 C 60.2,8.600070628549476 60,8.448187376402515 60,8.475576159576566 C 60,8.502964942750616 59.8,8.657338084277054 60,8.696553842003528 C 60.2,8.735769599730002 60.8,8.652358305518137 61,8.671654948208932 C 61.2,8.690951590899727 60.8,8.789924693733182 61,8.793037055457505 C 61.2,8.796149417181828 61.8,8.682236978071629 62,8.687216756830548 C 62.2,8.692196535589467 62,8.812956170493184 62,8.817935949252103 C 62,8.822915728011022 61.8,8.691574063244609 62,8.712115650625144 C 62.2,8.732657238005679 62.8,8.842212370701843 63,8.920643886154776 C 63.2,8.99907540160771 63,9.123569870580619 63,9.104273227889811 C 63,9.084976585199003 62.8,8.954257392777434 63,8.824160672700735 C 63.2,8.694063952624036 63.8,8.626214467033812 64,8.453789627506318 C 64.2,8.281364787978823 64,8.852794400564527 64,7.962036475063263 C 64,7.071278549561999 63.8,4.561470055067877 64,4 C 64.2,3.438529944932123 64.8,4.675382494178129 65,5.154686199723879 C 65.2,5.63398990526963 65,6.341740961380665 65,6.396518527728753 C 65,6.451296094076841 64.8,5.515097687400496 65,5.42857403146432 C 65.2,5.342050375528144 65.8,5.6837876928587985 66,5.9639002480478736 C 66.2,6.244012803236949 66,6.616873737810871 66,6.829136807409696 C 66,7.04139987700852 65.8,7.14037297984195 66,7.025215596041997 C 66.2,6.910058212242045 66.8,6.456898345180656 67,6.253349888409931 C 67.2,6.049801431639205 67,5.8792440091462685 67,6.00747331218837 C 67,6.135702615230472 66.8,6.743235623818338 67,6.894496403620441 C 67.2,7.045757183422545 67.8,6.6162512654659755 68,6.763777211198886 C 68.2,6.911303156931797 68,5.164465621624967 68,7.632126132284993 C 68,10.09978664294502 67.8,16.82575459697262 68,19.102079764499013 C 68.2,21.378404932025408 68.8,18.98633989573633 69,19.01375196991697 C 69.2,19.041164044097613 68.8,19.250104965074485 69,19.23914013540223 C 69.2,19.228175305729977 69.8,18.85658941128132 70,18.958927821555697 C 70.2,19.061266231830075 70,19.529708121716975 70,19.75083218677412 C 70,19.971956251831262 69.8,20.07185803328959 70,20.06454814684142 C 70.2,20.05723826039325 70.8,19.692353095188764 71,19.714282754533272 C 71.2,19.73621241387778 71,20.088305277797964 71,20.174196443563968 C 71,20.26008760932997 70.8,20.095615164246162 71,20.143738583363284 C 71.2,20.191862002480406 71.8,20.373390849276603 72,20.41481353914957 C 72.2,20.456236229022537 72,20.33562310262776 72,20.350852032728117 C 72,20.366080962828473 71.8,20.5268984646882 72,20.49095818965135 C 72.2,20.455017914614505 72.8,20.28932715512264 73,20.171150657543887 C 73.2,20.052974159965135 73,19.933579347978377 73,19.900075701757597 C 73,19.866572055536817 72.8,19.99875916880787 73,20.003632426439985 C 73.2,20.0085056840721 73.8,19.903730644981696 74,19.924441989918186 C 74.2,19.945153334854677 74,20.084041177369905 74,20.107189151122434 C 74,20.130337124874963 73.8,20.077949605329717 74,20.040181858680835 C 74.2,20.002414112031953 74.8,19.96403720817908 75,19.918350417878024 C 75.2,19.87266362757697 75,19.855607225864578 75,19.81174790717556 C 75,19.76788858848654 74.8,19.71671938334935 75,19.69905382443293 C 75.2,19.68138826551651 75.8,19.612553501462873 76,19.723420112593452 C 76.2,19.83428672372403 75.8,20.331359002199648 76,20.25338688008583 C 76.2,20.175414757972014 76.8,19.432852126278682 77,19.33355950202437 C 77.2,19.23426687777006 77,19.70758202528913 77,19.756923758814285 C 77,19.80626549233944 76.8,19.659458606171984 77,19.580268169650136 C 77.2,19.501077733128287 77.8,19.27508041043904 78,19.360971576205042 C 78.2,19.446862741971046 78,19.89276581530943 78,20.009723998480148 C 78,20.126682181650864 77.8,19.90799474540975 78,19.94576249205863 C 78.2,19.983530238707512 78.8,20.254605194493852 79,20.198562731724557 C 79.2,20.142520268955263 79,19.70514539647309 79,19.665550178212158 C 79,19.625954959951226 78.8,20.000586640419904 79,20.000586640419904 C 79.2,20.000586640419904 79.8,19.70027213884096 80,19.665550178212158 C 80.2,19.630828217583357 80,19.693571409596792 80,19.8269768372759 C 80,19.96038226495501 79.8,20.180897172808162 80,20.332577316607694 C 80.2,20.484257460407225 80.8,20.49461313287545 81,20.585377556273556 C 81.2,20.676141979671662 81,20.751677472969426 81,20.786399433598227 C 81,20.821121394227028 80.8,20.746195058133253 81,20.758987359417556 C 81.2,20.77177966070186 81.8,20.807110778534728 82,20.850360940019744 C 82.2,20.89361110150476 82,21.010569284675462 82,20.975238166842633 C 82,20.939907049009804 81.8,20.742540114909204 82,20.673705350855595 C 82.2,20.604870586801987 82.8,20.650557377103038 83,20.631064346574583 C 83.2,20.611571316046128 83,20.613398787658177 83,20.576240198213313 C 83,20.53908160876845 82.8,20.336841417035732 83,20.445271399350258 C 83.2,20.553701381664784 83.8,21.0477278741203 84,21.11839010978595 C 84.2,21.189052345451596 83.8,20.84792431120364 84,20.798582577678488 C 84.2,20.749240844153334 84.8,20.924068961705405 85,20.871681442160185 C 85.2,20.819293922614964 85,20.599997329169852 85,20.536644979952378 C 85,20.473292630734903 84.8,20.51166953458779 85,20.554919696072805 C 85.2,20.59816985755782 85.8,20.749850001357377 86,20.752895787377458 C 86.2,20.75594157339754 86,20.62253614571843 86,20.57014862617321 C 86,20.51776110662799 85.8,20.4970497616915 86,20.49095818965135 C 86.2,20.484866617611203 86.8,20.39836629464117 87,20.539690765972463 C 87.2,20.681015237303754 87,21.05442860336447 87,21.19758054630781 C 87,21.340732489251153 86.8,21.327940187966867 87,21.25545048068917 C 87.2,21.182960773411473 87.8,20.88569205785252 88,20.835132009919334 C 88.2,20.78457196198615 88,21.02031579993965 88,21.00265024102324 C 88,20.98498468210683 87.8,20.77787123274201 88,20.746804215337296 C 88.2,20.71573719793258 88.8,20.823558023043105 89,20.847315153999663 C 89.2,20.87107228495622 89,20.925896433317494 89,20.865589870120086 C 89,20.80528330692268 88.8,20.562229582521013 89,20.545782338012625 C 89.2,20.529335093504237 89.8,20.758987359417585 90,20.783353647578146 C 90.2,20.807719935738707 90,20.679796922895722 90,20.667613778815433 C 90,20.655430634735144 89.8,20.665786307203383 90,20.722437927176706 C 90.2,20.77908954715003 90.8,20.877773014200336 91,20.950871878682047 C 91.2,21.02397074316376 91,21.086104777973215 91,21.087932249585265 C 91,21.089759721197314 90.8,20.97950226727075 91,20.96000923674229 C 91.2,20.940516206213832 91.8,21.034935572836012 92,20.99046709694298 C 92.2,20.945998621049945 91.8,20.82173055143107 92,20.737666857277116 C 92.2,20.65360316312316 92.8,20.563447896929056 93,20.57014862617321 C 93.2,20.576849355417366 93,20.67979692289576 93,20.771170503497885 C 93,20.86254408410001 92.8,21.01422422789954 93,21.02701652918383 C 93.2,21.039808830468118 93.8,20.858279983671878 94,20.835132009919334 C 94.2,20.81198403616679 94,20.890565315484626 94,20.911276660421116 C 94,20.931988005357606 93.8,20.938079577397765 94,20.938688734601783 C 94.2,20.9392978918058 94.8,20.87716385699633 95,20.914322446441197 C 95.2,20.951481035886065 95,21.05808354658857 95,21.124481681826115 C 95,21.19087981706366 94.8,21.212200319204143 95,21.246313122628926 C 95.2,21.28042592605371 95.8,21.23839407897671 96,21.295045698950034 C 96.2,21.351697318923357 96,21.505204934334962 96,21.529571222495537 C 96,21.553937510656112 95.8,21.42845112662918 96,21.41687713975291 C 96.2,21.405303152876638 96.8,21.450989943177706 97,21.471701288114183 C 97.2,21.49241263305066 97,21.555764982268123 97,21.520433864435294 C 97,21.485102746602465 96.8,21.34682406129124 97,21.295045698950034 C 97.2,21.243267336608827 97.8,21.315757043886528 98,21.26154205272927 C 98.2,21.20732706157201 98,20.975238166842608 98,21.023970743163744 C 98,21.07270331948488 97.8,21.398602423632468 98,21.505204934334948 C 98.2,21.611807445037428 98.8,21.53688110894367 99,21.556983296676144 C 99.2,21.577085484408617 99,21.595969357733082 99,21.60571587299732" stroke-width="1.7" class="SparkLine__Path-sc-9wg5ja-1 jTdHd"/></svg>