<svg viewBox="0 0 100 32" version="1.1" xmlns="http://www.w3.org/2000/svg" preserveAspectRatio="none" class="SparkLine__Svg-sc-9wg5ja-0 hReQUL"><path d="M 0,22.79068542628916 C 4.215712406347437e-19,22.797570207124387 -8.030103718989632e-18,22.781395481843372 0,22.825109330465306 C 2.676701239663211e-18,22.86882317908724 -0.19999999999999998,22.9743797970457 0,23.009254669398832 C 0.19999999999999998,23.044129541751964 0.8,23.00191892038666 1,22.999483692230967 C 1.2,22.997048464075274 1,23.067970726041636 1,22.99707852862037 C 1,22.926186331199105 0.8,22.682212547452913 1,22.64502270512463 C 1.2,22.60783286279635 1.8,22.749046031281367 2,22.811129316978956 C 2.2,22.873212602676546 2,22.89540023698397 2,22.95543913361258 C 2,23.015478030241187 1.8,23.086430356752707 2,23.111323800122005 C 2.2,23.136217243491302 2.8,23.06541523970544 3,23.079906350459066 C 3.2,23.09439746121269 3,23.212821704487638 3,23.18377935389012 C 3,23.154737003292603 2.8,22.97928031790223 3,22.934694597471474 C 3.2,22.890108877040717 3.8,22.968066242568018 4,22.960850751736338 C 4.2,22.953635260904658 4,22.926727493011494 4,22.898617143313068 C 4,22.87050679361464 3.8,22.856737231944205 4,22.820299003244212 C 4.2,22.78386077454422 4.8,22.77772760733726 5,22.716425999813104 C 5.2,22.65512439228895 5,22.681821708366204 5,22.513790965623443 C 5,22.34576022288068 4.8,21.916228066579734 5,21.876272286099297 C 5.2,21.83631650561886 5.8,22.272943894570947 6,22.31401206322126 C 6.2,22.355080231871572 6,22.207343057092903 6,22.081613129350863 C 6,21.955883201608824 5.8,21.838691604684286 6,21.685362424511066 C 6.2,21.532033244337846 6.8,21.426536755469638 7,21.314967228484768 C 7.2,21.2033977014999 7,21.197174340657583 7,21.127514789586726 C 7,21.05785523851587 6.8,21.052173039485904 7,20.966669473130484 C 7.2,20.881165906775063 7.8,20.741004997369668 8,20.699996957809617 C 8.2,20.658988918249566 7.8,20.74428203278906 8,20.761629275330222 C 8.2,20.778976517871385 8.8,20.80335886397344 9,20.78673317051544 C 9.2,20.77010747705744 9,20.65390801012224 9,20.67850080804022 C 9,20.7030936059582 8.8,20.947277841520346 9,20.909697160105342 C 9.2,20.872116478690337 9.8,20.59994215161029 10,20.490597400965196 C 10.2,20.381252650320103 10,20.25179471898172 10,20.362973406879874 C 10,20.474152094778027 9.8,20.947187647884963 10,21.04649084045597 C 10.2,21.145794033026977 10.8,20.912613420983167 11,20.859489369734913 C 11.2,20.80636531848666 11,20.782163359655378 11,20.780870584214696 C 11,20.779577808774015 10.8,20.820736171059735 11,20.853025492531508 C 11.2,20.88531481400328 11.8,20.914477422781324 12,20.942317191573558 C 12.2,20.97015696036579 12,21.01059377356834 12,20.992224336492683 C 12,20.973854899417027 11.8,20.795391759513446 12,20.850470006195284 C 12.2,20.90554825287712 12.8,21.20880931962367 13,21.26761556990187 C 13.2,21.326421820180073 13,21.270171056238066 13,21.14450125758629 C 13,21.01883145893451 12.8,20.734721507437094 13,20.63926657664298 C 13.2,20.54381164584887 13.8,20.680725584379996 14,20.667226603615727 C 14.2,20.65372762285146 14,20.58325632906206 14,20.571771672821637 C 14,20.560287016581213 13.8,20.634245797605928 14,20.609803322413605 C 14.2,20.58536084722128 14.8,20.508185159867427 15,20.44955929686002 C 15.2,20.390933433852613 15,20.44532019599641 15,20.31667400737657 C 15,20.18802781875673 14.8,19.868561962184064 15,19.806328353760815 C 15.2,19.744094745337566 15.8,19.99940286259854 16,20.005505965260333 C 16.2,20.011609067922127 15.8,19.864112409504514 16,19.836843867069785 C 16.2,19.809575324635055 16.8,19.855032916874656 17,19.869163253086693 C 17.2,19.88329358929873 17,19.91825865528723 17,19.90749554812997 C 17,19.89673244097271 16.8,19.878032293900613 17,19.81534771730039 C 17.2,19.752663140700168 17.8,19.781044071304795 18,19.594072665128863 C 18.2,19.40710125895293 18,19.064786348079917 18,18.880490686420732 C 18,18.696195024761547 17.8,18.742283972448924 18,18.672594356832942 C 18.2,18.60290474121696 18.8,18.56730831978066 19,18.532042608340817 C 19.2,18.496776896900972 19,18.373662584585407 19,18.496265799633715 C 19,18.618869014682023 18.8,18.897657541691093 19,19.145058683582356 C 19.2,19.39245982547362 19.8,19.633487283796907 20,19.733271509090034 C 20.2,19.833055734383162 20,19.560159858219958 20,19.643979810047988 C 20,19.727799761876017 19.8,19.895589988257736 20,20.152371268230183 C 20.2,20.40915254820263 20.8,20.864931052403815 21,20.927886209910227 C 21.2,20.99084136741664 21,20.659680402787597 21,20.46714705576224 C 21,20.274613708736883 20.8,20.100528127519265 21,19.965219474783446 C 21.2,19.829910822047626 21.8,19.76410557812637 22,19.79060379208314 C 22.2,19.81710200603991 22,20.04996175496874 22,20.097710544567306 C 22,20.14545933416587 21.8,20.00059028781301 22,20.029347740075956 C 22.2,20.0581051923389 22.8,20.248078664863822 23,20.241497805882023 C 23.2,20.234916946900224 23,20.056452465197374 23,19.996443445166957 C 23,19.93643442513654 22.8,19.890939354367326 23,19.94145270572993 C 23.2,19.991966057092533 23.8,20.28299628192709 24,20.249010201979974 C 24.2,20.215024122032858 23.8,20.01053670024669 24,19.771522305994345 C 24.2,19.532507911742 24.8,19.13011392715145 25,19.05393823071825 C 25.2,18.97776253428505 25,19.233604695796817 25,19.39064382382834 C 25,19.547682951859866 24.8,19.845203886923024 25,19.839133870875873 C 25.2,19.833063854828723 25.8,19.41273026835627 26,19.360293743592592 C 26.2,19.307857218828914 26,19.462883024706215 26,19.57695124705748 C 26,19.691019469408744 25.8,19.819030698917775 26,19.930634855348906 C 26.2,20.042239011780037 26.8,19.51931614419401 27,20.134972029213134 C 27.2,20.750627914232258 27,22.530975640692994 27,23.008914280444518 C 27,23.486852920196043 26.8,22.61535487366519 27,22.524665227970754 C 27.2,22.433975582276318 27.8,22.42640308700958 28,22.55546605197234 C 28.2,22.684529016935098 28,22.874171944031712 28,23.169980052784553 C 28,23.465788161537393 27.8,23.068502606293457 28,24.034506595736545 C 28.2,25.000510585179633 28.8,27.669093976677537 29,28 C 29.2,28.330906023322463 29,26.306645820353463 29,25.689036712348866 C 29,25.07142760434427 28.8,25.11671232802272 29,24.91195445997702 C 29.2,24.70719659193132 29.8,24.814203161950502 30,24.66524737212037 C 30.2,24.516291582290236 30,24.243801951025436 30,24.167175510826354 C 30,24.090549070627272 29.8,24.171472601394363 30,24.28211517112496 C 30.2,24.392757740855558 30.8,25.470245688392232 31,24.720388359479344 C 31.2,23.970531030566455 31,20.912414876597694 31,20.53282852656051 C 31,20.153242176523328 30.8,22.331476449915876 31,22.822456609293436 C 31.2,23.313436768670996 31.8,22.85776487095378 32,22.987729323448306 C 32.2,23.117693775942833 32,23.437721849715487 32,23.47227887176606 C 32,23.506835893816636 31.8,23.334050783563804 32,23.16051443370118 C 32.2,22.986978083838558 32.8,22.671427398140306 33,22.604597122452947 C 33.2,22.53776684676559 32.8,22.772394001696725 33,22.826363055264384 C 33.2,22.880332108832043 33.8,23.005338379901904 34,22.874442390291236 C 34.2,22.743546400680568 34,22.223989086546418 34,22.171883107211045 C 34,22.119777127875672 33.8,22.711904188316026 34,22.61391249361438 C 34.2,22.51592079891273 34.8,22.02250662319943 35,21.681924633702806 C 35.2,21.341342644206183 35,21.092081341676234 35,20.911002546131268 C 35,20.729923750586302 34.8,20.84158800618622 35,20.776530655977982 C 35.2,20.711473305769744 35.8,20.532317683625855 36,20.585715795090074 C 36.2,20.639113906554293 36,20.972844590809572 36,21.04352121329908 C 36,21.114197835788588 35.8,20.987508787992784 36,20.93909890753761 C 36.2,20.890689027082434 36.8,20.895767406844662 37,20.801471811023198 C 37.2,20.707176215201734 37,20.62300732932027 37,20.46762092843029 C 37,20.31223452754031 36.8,20.111112659206054 37,20.024539806573294 C 37.2,19.937966953940535 37.8,20.130404492385583 38,20.034756665266492 C 38.2,19.9391088381474 38,19.390283228815637 38,19.546300670977843 C 38,19.70231811314005 37.8,20.58042706823712 38,20.814843876077518 C 38.2,21.049260683917915 38.8,21.284218384277363 39,20.71838471017983 C 39.2,20.152551036082297 39,18.76639375767312 39,17.98567550558986 C 39,17.2049572535066 38.8,17.040345630208346 39,16.814793449763528 C 39.2,16.58924126931871 39.8,17.02054295409418 40,16.857914603365774 C 40.2,16.69528625263737 40,16.36053388251274 40,16.00165169612151 C 40,15.64276950973028 39.8,14.93359931808389 40,15.063503671409627 C 40.2,15.193408024735364 40.8,16.41973156376458 41,16.651173462750194 C 41.2,16.88261536173581 40.8,16.345388891979265 41,16.220713166337703 C 41.2,16.09603744069614 41.8,16.149105006732064 42,16.027794834542377 C 42.2,15.90648466235269 42,15.51166317302885 42,15.61416230538927 C 42,15.71666143774969 41.8,16.187057631818902 42,16.540290496344475 C 42.2,16.89352336087005 42.8,18.68591324055511 43,17.38032662801713 C 43.2,16.07474001547915 43,11.498512035528325 43,10.01235743365458 C 43,8.526202831780836 42.8,9.819025592423952 43,9.949553618648409 C 43.2,10.080081644872866 43.8,10.73779497954312 44,10.664997564776867 C 44.2,10.592200150010614 44,9.89918832077487 44,9.585566544817148 C 44,9.271944768859425 43.8,8.94915455275481 44,9.096888684988254 C 44.2,9.244622817221698 44.8,10.218891828696679 45,10.324237205984367 C 45.2,10.429582583272056 45,9.665209728226383 45,9.623615571426695 C 45,9.582021414627008 44.8,9.989894755294715 45,10.116266421985925 C 45.2,10.242638088677134 45.8,10.148569892770078 46,10.255473904882741 C 46.2,10.362377916995404 46,10.596478755412523 46,10.650786482549236 C 46,10.70509420968595 45.8,10.546419072210547 46,10.52701254056631 C 46.2,10.507606008922075 46.8,10.661819172192658 47,10.553753824328055 C 47.2,10.445688476463452 47,10.168557092290312 47,9.986685801243297 C 47,9.804814510196282 46.8,9.914652423155951 47,9.644397369092983 C 47.2,9.374142315030015 47.8,8.937235580563861 48,8.635410530928457 C 48.2,8.333585481293053 48,8.205013388966583 48,8.135272120915959 C 48,8.065530852865335 47.8,8.144562806931484 48,8.286704190675337 C 48.2,8.42884557441919 48.8,8.825105557567483 49,8.845979039635223 C 49.2,8.866852521702963 48.8,8.415184598600334 49,8.391071601014035 C 49.2,8.366958603427737 49.8,8.73015107911295 50,8.725414051703726 C 50.2,8.720677024294503 50,8.256112162051918 50,8.36738646396792 C 50,8.478660765883921 49.8,9.104284560040073 50,9.281785561283737 C 50.2,9.459286562527401 50.8,9.158775655979747 51,9.25489147018624 C 51.2,9.351007284392734 51,9.76496235702449 51,9.762364632316206 C 51,9.759766907607922 50.8,9.515244608890569 51,9.241902846644823 C 51.2,8.968561084399077 51.8,8.408369391424493 52,8.395655821087477 C 52.2,8.38294225075046 52,8.937907932841307 52,9.178334994959744 C 52,9.418762057078181 51.8,9.550206927317337 52,9.59779113167966 C 52.2,9.645375336041983 52.8,9.347309346866792 53,9.41625601677136 C 53.2,9.485202686675928 53,9.808695816525148 53,9.942524481202495 C 53,10.076353145879843 52.8,10.147500241419658 53,10.085399340158094 C 53.2,10.02329843889653 53.8,9.643877824151309 54,9.632019974894671 C 54.2,9.620162125638034 54,10.026140655342056 54,10.026110093874905 C 54,10.026079532407755 53.8,9.76936320829502 54,9.63186716755892 C 54.2,9.494371126822818 54.8,9.394251760418829 55,9.338629890194403 C 55.2,9.283008019969976 55,9.440857997832182 55,9.35375781643679 C 55,9.266657635041398 54.8,9.189031508464423 55,8.903128983217442 C 55.2,8.617226457970462 55.8,8.129068143083263 56,7.92424519020189 C 56.2,7.719422237320517 56,7.853373147866465 56,7.879014218810578 C 56,7.904655289754691 55.8,7.752367498914957 56,8.052450544922456 C 56.2,8.352533590929955 56.8,9.1074323911572 57,9.379429448848073 C 57.2,9.651426506538947 57,9.438046342853786 57,9.412435833376824 C 57,9.386825323899862 56.8,9.375089720511875 57,9.25137690146326 C 57.2,9.127664082414645 57.8,8.79836427380572 58,8.793871738133749 C 58.2,8.789379202461777 57.8,9.068374836131476 58,9.228914223103406 C 58.2,9.389453610075336 58.8,9.698124428353713 59,9.5965686729934 C 59.2,9.495012917633085 59,8.869052947338222 59,8.721135446301837 C 59,8.573217945265451 58.8,8.960523418536944 59,8.856981167811472 C 59.2,8.753438917086001 59.8,8.282058847667585 60,8.203424192674479 C 60.2,8.124789537681373 60,8.472059488978141 60,8.463807892845946 C 60,8.45555629671375 59.8,8.196853477235878 60,8.162166212013503 C 60.2,8.127478946791127 60.8,8.27842203307596 61,8.29037156673407 C 61.2,8.302321100392179 61,8.134446961302771 61,8.221913880304047 C 61,8.309380799305323 60.8,8.665146838471548 61,8.727706161740446 C 61.2,8.790265485009344 61.8,8.581989086339311 62,8.534710496648541 C 62.2,8.487431906957772 62,8.474901705423678 62,8.491313213286597 C 62,8.507724721149517 61.8,8.532418386611809 62,8.616768035963137 C 62.2,8.701117685314465 62.8,8.793718930797967 63,8.913061460043233 C 63.2,9.032403989288499 63,9.224299441562783 63,9.213480682189465 C 63,9.202661922816146 62.8,8.99869469101514 63,8.85896766317664 C 63.2,8.71924063533814 63.8,8.6391695913887 64,8.51484554299696 C 64.2,8.39052149460522 64,9.140316529817328 64,8.237347421217937 C 64,7.3343783126185444 63.8,4.669815675664141 64,4 C 64.2,3.330184324335858 64.8,4.37159687915319 65,4.888269042897228 C 65.2,5.404941206641267 65,6.387706305985705 65,6.583360818720195 C 65,6.779015331454684 64.8,5.89007393628001 65,5.866541606569676 C 65.2,5.843009276859342 65.8,6.137377328508629 66,6.4656991701685245 C 66.2,6.79402101182842 65.8,7.237956883740508 66,7.508150814869155 C 66.2,7.778344745997802 66.8,7.9543482353507935 67,7.816668825811761 C 67.2,7.678989416272729 67,7.1417799465996925 67,6.819753767173994 C 67,6.497727587748296 66.8,6.180346751330339 67,6.206537928683268 C 67.2,6.232729106036197 67.8,6.851446008615043 68,6.9507096539386355 C 68.2,7.049973299262228 68,6.579296143588398 68,6.702856155301232 C 68,6.826416167014066 67.8,5.476252725555067 68,7.568509712502804 C 68.2,9.66076669945054 68.8,15.306864010341233 69,17.16414109003992 C 69.2,19.021418169738606 69,16.889617991235085 69,16.854895110996235 C 69,16.820172230757386 68.8,17.042326885722247 69,16.99052668884568 C 69.2,16.938726491969113 69.8,16.55949641321918 70,16.595894126613395 C 70.2,16.63229184000761 70,16.93151872785408 70,17.17251525581676 C 70,17.413511783779438 69.8,17.628069874075305 70,17.800876766426796 C 70.2,17.973683658778288 70.8,17.90175555630247 71,18.036549717574225 C 71.2,18.17134387884598 71,18.390208682969945 71,18.474847572785578 C 71,18.55948646260121 70.8,18.383449534878658 71,18.459744166652392 C 71.2,18.536038798426127 71.8,18.779248498772667 72,18.856320731654254 C 72.2,18.93339296453584 72,18.86134523112036 72,18.845105331060328 C 72,18.828865431000295 71.8,18.83643208793433 72,18.7751212313541 C 72.2,18.713810374773868 72.8,18.647265664583124 73,18.538551048159164 C 73.2,18.429836431735204 73,18.261216622272133 73,18.231548149234293 C 73,18.20187967619645 72.8,18.377527803365084 73,18.390208682969963 C 73.2,18.402889562574842 73.8,18.301651879880147 74,18.294952547258696 C 74.2,18.288253214637244 73.8,18.338408486093385 74,18.3567120198627 C 74.2,18.375015553632018 74.8,18.413237638856156 75,18.38647021610527 C 75.2,18.359702793354383 75,18.225566602250804 75,18.222874906108267 C 75,18.22018320996573 74.8,18.302549111927686 75,18.37301173539258 C 75.2,18.443474358857475 75.8,18.502572043053824 76,18.575188023432744 C 76.2,18.647804003811665 76,18.57387208309637 76,18.73609163728718 C 76,18.898311191477994 75.8,19.439820639888563 76,19.3862857943868 C 76.2,19.33275094888504 76.8,18.60303212464062 77,18.468417409778365 C 77.2,18.33380269491611 77,18.667393570182394 77,18.713212220075526 C 77,18.759030869968658 76.8,18.728913780907064 77,18.697510659244017 C 77.2,18.66610753758097 77.8,18.552009528871892 78,18.5561966117603 C 78.2,18.560383694648706 78,18.751853013588537 78,18.718446073686046 C 78,18.685039133783555 77.8,18.420385587501382 78,18.38916191224784 C 78.2,18.357938236994297 78.8,18.629590193247072 79,18.562327697418326 C 79.2,18.49506520158958 79,18.113472411781235 79,18.052849433104104 C 79,17.992226454426973 78.8,18.23453892272599 79,18.259212804032668 C 79.2,18.283886685339347 79.8,18.154117023533697 80,18.1762188396375 C 80.2,18.198320655741302 80,18.248565650402174 80,18.369721884551687 C 80,18.4908781187012 79.8,18.66467196630495 80,18.78200001038506 C 80.2,18.899328054465172 80.8,18.892598814108798 81,18.95636210495224 C 81.2,19.020125395795684 81,19.11959852213027 81,19.10081646460228 C 81,19.082034407074286 80.8,18.882968523465475 81,18.86245181731228 C 81.2,18.841935111159085 81.8,18.979121891224214 82,18.998232933836295 C 82.2,19.017343976448377 82,19.01064464382692 82,18.958007030372684 C 82,18.905369416918447 81.8,18.76851162193744 82,18.735044866565108 C 82.2,18.701578111192777 82.8,18.7789494214235 83,18.790673253511038 C 83.2,18.802397085598574 82.8,18.84800638134731 83,18.79366402700279 C 83.2,18.73932167265827 83.8,18.42771298255612 84,18.518961481788445 C 84.2,18.61020998102077 84,19.173851153270018 84,19.249906523164416 C 84,19.325961893058814 83.8,18.943112978383944 84,18.899238331260435 C 84.2,18.855363684136925 84.8,19.066422569447493 85,19.030533287546866 C 85.2,18.99464400564624 85,18.781132686072453 85,18.719791921757306 C 85,18.65845115744216 84.8,18.665778552496874 85,18.723829465971132 C 85.2,18.78188037944539 85.8,18.958036938107607 86,19.01004648912859 C 86.2,19.062056040149574 86,19.026226573718777 86,18.983877221076046 C 86,18.941527868433315 85.8,18.824020377943715 86,18.79829972591494 C 86.2,18.772579073886167 86.8,18.777603573352252 87,18.85527396093218 C 87.2,18.93294434851211 87,19.12955779785768 87,19.186651663814583 C 87,19.243745529771488 86.8,19.22245122251045 87,19.140743290716703 C 87.2,19.059035358922955 87.8,18.812535807735536 88,18.778112004845852 C 88.2,18.743688201956168 88,18.97807512050213 88,18.96862427626829 C 88,18.95917343203445 87.8,18.801709207695474 88,18.73085778367666 C 88.2,18.66000635965785 88.8,18.627496651802876 89,18.614367156174232 C 89.2,18.60123766054559 89,18.71518613058006 89,18.66521030553345 C 89,18.615234480486837 88.8,18.371306994502287 89,18.36448803094117 C 89.2,18.357669067380055 89.8,18.5996824583299 90,18.63111548772786 C 90.2,18.66254851712582 90,18.52545146026544 90,18.52165317793096 C 90,18.517854895596482 89.8,18.5615500963105 90,18.612124076055466 C 90.2,18.66269805580043 90.8,18.748144454458824 91,18.774523076655775 C 91.2,18.800901698852726 90.8,18.77697551091896 91,18.74401718704022 C 91.2,18.711058863161483 91.8,18.64711612590856 92,18.609731457262086 C 92.2,18.57234678861561 92,18.59002225995168 92,18.557093843807856 C 92,18.52416542766403 91.8,18.484148878344808 92,18.445089376542956 C 92.2,18.406029874741105 92.8,18.345735881148073 93,18.3617963347986 C 93.2,18.37785678844913 93,18.478137423626443 93,18.525391644795604 C 93,18.572645865964766 92.8,18.620916950121128 93,18.598067440644403 C 93.2,18.57521793116768 93.8,18.451280277670858 94,18.411144097411988 C 94.2,18.37100791715312 94,18.41132354382147 94,18.397386539350062 C 94,18.383449534878654 93.8,18.346274220376614 94,18.341459075054946 C 94.2,18.336643929733278 94.8,18.336135498239656 95,18.373310812741714 C 95.2,18.41048612724377 95,18.485733988295422 95,18.527335647565234 C 95,18.568937306835046 94.8,18.576115163215185 95,18.58131910909077 C 95.2,18.586523054966356 95.8,18.502392596644285 96,18.553355376943163 C 96.2,18.60431815724204 96,18.783555212600746 96,18.836133010585165 C 96,18.888710808569584 95.8,18.854705713968762 96,18.816244366865263 C 96.2,18.777783019761763 96.8,18.653187396096754 97,18.643826275067667 C 97.2,18.63446515403858 97,18.796505261819878 97,18.769438761719826 C 97,18.742372261619774 96.8,18.573752452156697 97,18.508493774567405 C 97.2,18.443235096978114 97.8,18.479543087167592 98,18.443145373773376 C 98.2,18.40674766037916 98,18.278413569849498 98,18.326505207596327 C 98,18.374596845343156 97.8,18.586253885352086 98,18.68360356250752 C 98.2,18.780953239662956 98.8,18.77242953521155 99,18.81325359337351 C 99.2,18.85407765153547 99,18.87282980132856 99,18.887723853317322" stroke-width="1.7" class="SparkLine__Path-sc-9wg5ja-1 jTdHd"/></svg>