<svg viewBox="0 0 100 32" version="1.1" xmlns="http://www.w3.org/2000/svg" preserveAspectRatio="none" class="SparkLine__Svg-sc-9wg5ja-0 hReQUL"><path d="M 0,22.286377369158792 C 7.982382696123993e-18,22.156015166739586 2.6607942320404462e-18,21.678020424535816 0,21.634566357062763 C 2.6607942320404462e-18,21.59111228958971 -0.19999999999999998,21.764928559482033 0,22.06910703179352 C 0.2,22.37328550410501 0.7999999999999999,22.590555841470298 1,23.155458718620196 C 1.2,23.720361595770093 0.9999999999999999,24.372172607866162 1,24.893621417543006 C 1,25.41507022721985 0.8,25.849610901950566 1,25.762702767004413 C 1.2,25.67579463205826 1.8,24.80671328259681 2,24.459080742812247 C 2.2,24.111448203027685 2,24.0245400680816 2,24.0245400680816 C 2,24.0245400680816 1.8,24.545988877758376 2,24.459080742812247 C 2.2,24.37217260786612 2.8,23.80726973071629 3,23.589999393350954 C 3.2,23.37272905598562 3,23.546545325877855 3,23.372729055985573 C 3,23.19891278609329 2.8,22.89473431378183 3,22.720918043889547 C 3.2,22.547101773997266 3.8,22.634009908943376 4,22.50364770652417 C 4.2,22.373285504104963 4,22.112561099266596 4,22.06910703179352 C 4,22.025652964320447 3.8,22.286377369158792 4,22.286377369158792 C 4.2,22.286377369158792 4.8,22.199469234212728 5,22.06910703179352 C 5.2,21.938744829374315 5,21.85183669442812 5,21.634566357062763 C 5,21.417296019697407 4.8,21.113117547385944 5,20.982755344966737 C 5.2,20.85239314254753 5.8,21.026209412439812 6,20.982755344966737 C 6.2,20.939301277493662 6,20.76548500760136 6,20.76548500760136 C 6,20.76548500760136 5.8,20.85239314254753 6,20.982755344966737 C 6.2,21.113117547385944 6.8,21.46075008717046 7,21.417296019697385 C 7.2,21.37384195222431 7,20.895847210020566 7,20.76548500760136 C 7,20.635122805182153 6.8,20.678576872655206 7,20.76548500760136 C 7.2,20.852393142547513 7.8,21.113117547385965 8,21.200025682332118 C 8.2,21.28693381727827 7.8,21.243479749805193 8,21.200025682332118 C 8.2,21.156571614859043 8.8,20.808939075074456 9,20.982755344966737 C 9.2,21.15657161485902 9,21.938744829374315 9,22.06910703179352 C 9,22.199469234212728 8.8,21.808382626955044 9,21.634566357062763 C 9.2,21.46075008717048 9.8,21.330387884751325 10,21.200025682332118 C 10.2,21.06966347991291 10,20.939301277493684 10,20.982755344966737 C 10,21.02620941243979 9.8,21.330387884751257 10,21.417296019697385 C 10.2,21.504204154643514 10.8,21.504204154643514 11,21.417296019697385 C 11.2,21.330387884751257 11,21.286933817278225 11,20.982755344966737 C 11,20.67857687265525 10.8,20.20058213045144 11,19.896403658139953 C 11.2,19.592225185828465 11.8,19.635679253301586 12,19.461862983409304 C 12.2,19.288046713517023 12,19.1142304436247 12,19.02732230867855 C 12,18.9404141737324 11.8,19.114230443624677 12,19.02732230867855 C 12.2,18.94041417373242 12.8,18.549327566474826 13,18.5927816339479 C 13.2,18.636235701420976 13,19.070776376151645 13,19.244592646043927 C 13,19.418408915936208 12.8,19.201138578570895 13,19.461862983409304 C 13.2,19.722587388247714 13.8,20.330944332870644 14,20.54821467023598 C 14.2,20.765485007601313 14,20.461306535289825 14,20.54821467023598 C 14,20.63512280518213 13.8,21.113117547385944 14,20.982755344966737 C 14.2,20.85239314254753 14.8,20.11367399550531 15,19.896403658139953 C 15.2,19.679133320774596 15,19.896403658139953 15,19.896403658139953 C 15,19.896403658139953 14.8,20.02676586055916 15,19.896403658139953 C 15.2,19.766041455720746 15.8,19.54877111835541 16,19.244592646043927 C 16.2,18.940414173732442 15.8,18.549327566474805 16,18.375511296582523 C 16.2,18.201695026690242 16.8,18.375511296582523 17,18.375511296582523 C 17.2,18.375511296582523 17,18.418965364055577 17,18.375511296582523 C 17,18.33205722910947 16.8,18.201695026690306 17,18.158240959217252 C 17.2,18.1147868917442 17.8,18.071332824271124 18,18.158240959217252 C 18.2,18.24514909416338 18,18.375511296582566 18,18.5927816339479 C 18,18.810051971313236 17.8,18.983868241205517 18,19.244592646043927 C 18.2,19.505317050882336 18.8,19.635679253301543 19,19.896403658139953 C 19.2,20.157128062978362 19,20.417852467816772 19,20.54821467023598 C 19,20.678576872655185 18.8,20.461306535289825 19,20.54821467023598 C 19.2,20.63512280518213 19.8,20.808939075074456 20,20.982755344966737 C 20.2,21.15657161485902 20,21.316820403569345 20,21.417296019697385 C 20,21.517771635825426 19.8,21.428133500595738 20,21.485133425606946 C 20.2,21.542133350618155 20.8,21.61543075709483 21,21.702295644753423 C 21.2,21.789160532412016 21,21.832592976241333 21,21.919457863899904 C 21,22.006322751558475 20.8,22.26691741453414 21,22.136620083046274 C 21.2,22.006322751558407 21.8,21.354836094119147 22,21.267971206460576 C 22.2,21.181106318802005 22,21.615430757094853 22,21.702295644753423 C 22,21.789160532411994 21.8,21.702295644753423 22,21.702295644753423 C 22.2,21.702295644753423 22.8,21.74572808858272 23,21.702295644753423 C 23.2,21.658863200924127 23,21.571998313265517 23,21.485133425606946 C 23,21.398268537948375 22.8,21.31140365028985 23,21.267971206460576 C 23.2,21.2245387626313 23.8,21.2245387626313 24,21.267971206460576 C 24.2,21.31140365028985 23.8,21.44170098177767 24,21.485133425606946 C 24.2,21.52856586943622 24.8,21.311403650289783 25,21.485133425606946 C 25.2,21.65886320092411 25,22.093187639217025 25,22.353782302192755 C 25,22.614376965168486 24.8,22.266917414534163 25,22.788106740485603 C 25.2,23.309296066437042 25.8,24.56883693748638 26,24.959728931949954 C 26.2,25.350620926413526 26,24.655701825144902 26,24.742566712803473 C 26,24.829431600462044 25.8,25.3940533702428 26,25.3940533702428 C 26.2,25.3940533702428 26.8,24.699134268974177 27,24.742566712803473 C 27.2,24.78599915663277 27,24.959728931949975 27,25.611215589389282 C 27,26.26270224682859 26.8,27.956567556170725 27,28 C 27.2,28.043432443829275 27.8,26.566729353633523 28,25.82837780853565 C 28.2,25.090026263437775 28,24.61226938131563 28,24.308242274510626 C 28,24.00421516770562 27.8,24.395107162169197 28,24.308242274510626 C 28.2,24.221377386852055 28.8,23.787052948559204 29,23.873917836217775 C 29.2,23.960782723876346 29,24.52540449365704 29,24.742566712803473 C 29,24.959728931949908 28.8,25.307188482584234 29,24.959728931949954 C 29.2,24.612269381315674 29.8,23.09213384729065 30,23.00526895963208 C 30.2,22.91840407197351 30,24.177944943022823 30,24.525404493657103 C 30,24.872864044291383 29.8,24.52540449365704 30,24.742566712803473 C 30.2,24.959728931949908 30.8,25.307188482584277 31,25.611215589389282 C 31.2,25.915242696194287 31,26.306134690657792 31,26.262702246828496 C 31,26.2192698029992 30.8,25.437485814072076 31,25.3940533702428 C 31.2,25.350620926413526 31.8,25.87181025236499 32,26.04554002768213 C 32.2,26.219269802999268 32,26.349567134487067 32,26.262702246828496 C 32,26.175837359169925 31.8,25.611215589389282 32,25.611215589389282 C 32.2,25.611215589389282 32.8,26.306134690657792 33,26.262702246828496 C 33.2,26.2192698029992 32.8,25.698080477047807 33,25.3940533702428 C 33.2,25.090026263437796 33.8,24.87286404429134 34,24.742566712803473 C 34.2,24.612269381315606 34,24.91629648812061 34,24.742566712803473 C 34,24.568836937486335 33.8,24.047647611534913 34,23.873917836217775 C 34.2,23.700188060900636 34.8,23.960782723876346 35,23.873917836217775 C 35.2,23.787052948559204 35,23.613323173242065 35,23.439593397924927 C 35,23.26586362260779 34.8,22.961836515802805 35,23.00526895963208 C 35.2,23.048701403461354 35.8,23.700188060900594 36,23.656755617071298 C 36.2,23.613323173242 36,22.96183651580274 36,22.788106740485603 C 36,22.614376965168464 35.8,23.005268959632037 36,22.788106740485603 C 36.2,22.570944521339168 36.8,21.615430757094853 37,21.702295644753423 C 37.2,21.789160532411994 37,23.092133847290583 37,23.22243117877845 C 37,23.352728510266317 36.8,22.874971628144195 37,22.353782302192755 C 37.2,21.832592976241315 37.8,21.181106318801984 38,20.616484549021248 C 38.2,20.051862779240512 38,19.791268116264806 38,19.530673453289076 C 38,19.270078790313345 37.8,19.443808565630462 38,19.313511234142595 C 38.2,19.183213902654728 38.8,19.09634901499618 39,18.879186795849744 C 39.2,18.66202457670331 39,18.09740280692255 39,18.227700138410416 C 39,18.357997469898283 38.8,19.22664634648405 39,19.530673453289076 C 39.2,19.834700560094102 39.8,19.83470056009412 40,19.74783567243555 C 40.2,19.66097078477698 40,19.183213902654817 40,19.096349014996225 C 40,19.009484127337632 39.8,19.052916571166886 40,19.313511234142595 C 40.2,19.574105897118304 40.8,20.269024998386904 41,20.39932232987477 C 41.2,20.529619661362638 40.8,22.008038005100804 41,19.964997891581923 C 41.2,17.921957778063042 41.8,12.361158479650687 42,10.184121762280363 C 42.2,8.007085044910038 42,9.21233119963632 42,9.079814304730306 C 42,8.94729740982429 41.8,9.609881884354301 42,9.521537287750284 C 42.2,9.433192691146267 42.8,9.07981430473024 43,8.638091321710217 C 43.2,8.196368338690194 43,7.445439267556164 43,7.312922372650171 C 43,7.180405477744177 42.8,8.019679145482247 43,7.975506847180249 C 43.2,7.931334548878251 43.8,7.312922372650193 44,7.092060881140181 C 44.2,6.87119938963017 44,6.871199389630192 44,6.871199389630192 C 44,6.871199389630192 43.8,6.915371687932168 44,7.092060881140181 C 44.2,7.268750074348195 44.8,7.48961156585825 45,7.7546453556702595 C 45.2,8.019679145482268 45,8.417229830200228 45,8.417229830200228 C 45,8.417229830200228 44.8,7.931334548878273 45,7.7546453556702595 C 45.2,7.577956162462246 45.8,7.666300759066176 46,7.53378386416016 C 46.2,7.401266969254144 46,7.312922372650193 46,7.092060881140181 C 46,6.87119938963017 45.8,6.517821003214121 46,6.429476406610103 C 46.2,6.341131810006085 46.8,6.606165599818095 47,6.6503378981200925 C 47.2,6.69451019642209 47,6.5619933015160745 47,6.6503378981200925 C 47,6.73868249472411 46.8,7.224577776046175 47,7.092060881140181 C 47.2,6.959543986234188 47.8,6.12027031849614 48,5.987753423590124 C 48.2,5.855236528684109 48,6.385304108308105 48,6.429476406610103 C 48,6.473648704912101 47.8,5.987753423590102 48,6.208614915100114 C 48.2,6.429476406610125 48.8,7.268750074348151 49,7.53378386416016 C 49.2,7.798817653972169 48.8,7.357094670952146 49,7.53378386416016 C 49.2,7.710473057368174 49.8,8.284712935294213 50,8.417229830200228 C 50.2,8.549746725106242 50,8.284712935294234 50,8.196368338690238 C 50,8.108023742086242 49.8,7.975506847180249 50,7.975506847180249 C 50.2,7.975506847180249 50.8,8.196368338690238 51,8.196368338690238 C 51.2,8.196368338690238 51,7.931334548878251 51,7.975506847180249 C 51,8.019679145482247 50.8,8.37305753189823 51,8.417229830200228 C 51.2,8.461402128502225 51.8,8.284712935294234 52,8.196368338690238 C 52.2,8.108023742086242 52,8.284712935294278 52,7.975506847180249 C 52,7.666300759066219 51.8,6.915371687932124 52,6.6503378981200925 C 52.2,6.385304108308061 52.8,6.606165599818072 53,6.6503378981200925 C 53.2,6.6945101964221125 53,6.871199389630192 53,6.871199389630192 C 53,6.871199389630192 52.8,6.827027091328106 53,6.6503378981200925 C 53.2,6.473648704912079 53.8,6.031925721892122 54,5.987753423590124 C 54.2,5.9435811252881265 54,6.561993301516119 54,6.429476406610103 C 54,6.296959511704087 53.8,5.50185814226806 54,5.325168949060046 C 54.2,5.1484797558520325 54.8,5.41351354566402 55,5.546030440570036 C 55.2,5.678547335476051 55,5.722719633778093 55,5.987753423590124 C 55,6.252787213402156 54.8,6.694510196422178 55,6.871199389630192 C 55.2,7.047888582838206 55.8,6.915371687932212 56,6.871199389630192 C 56.2,6.827027091328172 56,6.6503378981200925 56,6.6503378981200925 C 56,6.6503378981200925 55.8,6.827027091328172 56,6.871199389630192 C 56.2,6.915371687932212 56.8,6.738682494724198 57,6.871199389630192 C 57.2,7.0037162845361856 57,7.53378386416016 57,7.53378386416016 C 57,7.53378386416016 56.8,7.047888582838206 57,6.871199389630192 C 57.2,6.694510196422178 57.8,6.6945101964221125 58,6.6503378981200925 C 58.2,6.606165599818072 57.8,6.517821003214077 58,6.6503378981200925 C 58.2,6.782854793026108 58.8,7.180405477744155 59,7.312922372650171 C 59.2,7.4454392675561865 59,7.3570946709521685 59,7.312922372650171 C 59,7.268750074348173 58.8,6.9595439862341655 59,7.092060881140181 C 59.2,7.224577776046197 59.8,7.842989952274233 60,7.975506847180249 C 60.2,8.108023742086264 60,7.798817653972257 60,7.7546453556702595 C 60,7.710473057368262 59.8,7.7546453556702595 60,7.7546453556702595 C 60.2,7.7546453556702595 60.8,7.710473057368262 61,7.7546453556702595 C 61.2,7.798817653972257 61,7.887162250576253 61,7.975506847180249 C 61,8.063851443784245 60.8,7.931334548878229 61,8.196368338690238 C 61.2,8.461402128502247 61.8,9.256503497938297 62,9.300675796240295 C 62.2,9.344848094542293 62,8.682263620012236 62,8.417229830200228 C 62,8.152196040388219 61.8,8.152196040388262 62,7.975506847180249 C 62.2,7.798817653972235 62.8,8.32888523359621 63,7.53378386416016 C 63.2,6.73868249472411 63,4.397550684718025 63,4 C 63,3.602449315281975 62.8,5.015962860946017 63,5.546030440570036 C 63.2,6.076098020194054 63.8,6.606165599818072 64,6.6503378981200925 C 64.2,6.6945101964221125 64,5.9435811252881265 64,5.766891932080135 C 64,5.590202738872144 63.8,5.590202738872144 64,5.766891932080135 C 64.2,5.9435811252881265 64.8,6.296959511704087 65,6.6503378981200925 C 65.2,7.003716284536098 65,7.401266969254144 65,7.53378386416016 C 65,7.666300759066176 64.8,7.445439267556164 65,7.312922372650171 C 65.2,7.180405477744177 65.8,6.782854793026174 66,6.871199389630192 C 66.2,6.95954398623421 65.8,7.666300759066264 66,7.7546453556702595 C 66.2,7.842989952274255 66.8,7.224577776046175 67,7.312922372650171 C 67.2,7.401266969254166 67,5.383235766385674 67,8.196368338690238 C 67,11.009500910994802 66.8,18.785369275459882 67,21.378585234172988 C 67.2,23.971801192886094 67.8,21.205675552639207 68,21.16244813225576 C 68.2,21.119220711872316 68,21.248902973022652 68,21.16244813225576 C 68,21.07599329148887 67.8,20.773401348804757 68,20.730173928421312 C 68.2,20.686946508037867 68.8,20.859856189571644 69,20.946311030338535 C 69.2,21.032765871105426 69,21.032765871105447 69,21.16244813225576 C 69,21.292130393406076 68.8,21.378585234172895 69,21.5947223360901 C 69.2,21.810859438007306 69.8,22.113451380691444 70,22.24313364184178 C 70.2,22.372815902992116 70,22.15667880107491 70,22.24313364184178 C 70,22.32958848260865 69.8,22.545725584525808 70,22.67540784567612 C 70.2,22.80509010682643 70.8,22.848317527209897 71,22.891544947593342 C 71.2,22.934772367976787 71,22.977999788360233 71,22.891544947593342 C 71,22.80509010682645 70.8,22.71863526605954 71,22.459270743758893 C 71.2,22.199906221458246 71.8,21.724404597240415 72,21.5947223360901 C 72.2,21.465040074939786 72,21.767632017623882 72,21.810859438007327 C 72,21.854086858390772 71.8,21.810859438007327 72,21.810859438007327 C 72.2,21.810859438007327 72.8,21.854086858390772 73,21.810859438007327 C 73.2,21.767632017623882 73,21.637949756473546 73,21.5947223360901 C 73,21.551494915706655 72.8,21.767632017623857 73,21.5947223360901 C 73.2,21.421812654556344 73.8,21.032765871105383 74,20.730173928421312 C 74.2,20.42758198573724 73.8,20.124990043053188 74,20.081762622669743 C 74.2,20.038535202286297 74.8,20.254672304203435 75,20.514036826504086 C 75.2,20.773401348804736 75,21.292130393406097 75,21.378585234172988 C 75,21.46504007493988 74.8,21.032765871105426 75,20.946311030338535 C 75.2,20.859856189571644 75.8,20.946311030338535 76,20.946311030338535 C 76.2,20.946311030338535 76,21.075993291488846 76,20.946311030338535 C 76,20.816628769188224 75.8,20.254672304203527 76,20.297899724586973 C 76.2,20.341127144970418 76.8,21.075993291488892 77,21.16244813225576 C 77.2,21.24890297302263 77,20.946311030338517 77,20.730173928421312 C 77,20.514036826504107 76.8,19.995307781902852 77,20.081762622669743 C 77.2,20.168217463436633 77.8,20.7734013488048 78,21.16244813225576 C 78.2,21.551494915706723 78,21.940541699157684 78,22.026996539924554 C 78,22.113451380691423 77.8,21.637949756473546 78,21.5947223360901 C 78.2,21.551494915706655 78.8,21.55149491570668 79,21.810859438007327 C 79.2,22.070223960307974 79,22.58895300490925 79,22.891544947593342 C 79,23.194136890277434 78.8,23.237364310660904 79,23.323819151427795 C 79.2,23.410273992194686 79.8,23.36704657181124 80,23.323819151427795 C 80.2,23.28059173104435 80,23.064454629127145 80,23.10768204951057 C 80,23.150909469893993 79.8,23.367046571811148 80,23.539956253344908 C 80.2,23.712865934878668 80.8,24.015457877562785 81,23.97223045717936 C 81.2,23.929003036795937 81,23.496728832961555 81,23.323819151427795 C 81,23.150909469894035 80.8,23.064454629127145 81,23.10768204951057 C 81.2,23.150909469893993 81.8,23.45350141257804 82,23.539956253344908 C 82.2,23.626411094111777 82,23.496728832961463 82,23.539956253344908 C 82,23.583183673728353 81.8,23.756093355262134 82,23.756093355262134 C 82.2,23.756093355262134 82.8,23.496728832961463 83,23.539956253344908 C 83.2,23.583183673728353 82.8,24.015457877562785 83,23.97223045717936 C 83.2,23.929003036795937 83.8,23.237364310660926 84,23.323819151427795 C 84.2,23.410273992194664 84,24.18836755909652 84,24.4045046610137 C 84,24.62064176293088 83.8,24.23159497947992 84,24.4045046610137 C 84.2,24.57741434254748 84.8,25.18259822791571 85,25.269053068682602 C 85.2,25.355507909449493 85,24.880006285231595 85,24.83677886484815 C 85,24.793551444464704 84.8,25.00968854638193 85,25.052915966765376 C 85.2,25.09614338714882 85.8,25.269053068682577 86,25.052915966765376 C 86.2,24.836778864848174 86,24.318049820246877 86,23.97223045717936 C 86,23.626411094111845 85.8,23.36704657181124 86,23.323819151427795 C 86.2,23.28059173104435 86.8,23.669638514495265 87,23.756093355262134 C 87.2,23.842548196029004 87,23.756093355262134 87,23.756093355262134 C 87,23.756093355262134 86.8,23.842548196029004 87,23.756093355262134 C 87.2,23.669638514495265 87.8,23.410273992194664 88,23.323819151427795 C 88.2,23.237364310660926 88,23.323819151427795 88,23.323819151427795 C 88,23.323819151427795 87.8,23.28059173104437 88,23.323819151427795 C 88.2,23.36704657181122 88.8,23.410273992194593 89,23.539956253344908 C 89.2,23.669638514495222 89,23.7993207756456 89,23.97223045717936 C 89,24.14514013871312 88.8,24.31804982024683 89,24.4045046610137 C 89.2,24.49095950178057 89.8,24.31804982024681 90,24.4045046610137 C 90.2,24.49095950178059 90,24.83677886484815 90,24.83677886484815 C 90,24.83677886484815 89.8,24.6206417629309 90,24.4045046610137 C 90.2,24.1883675590965 90.8,23.842548196029004 91,23.756093355262134 C 91.2,23.669638514495265 90.8,23.799320775645604 91,23.97223045717936 C 91.2,24.145140138713117 91.8,24.40450466101372 92,24.620641762930923 C 92.2,24.836778864848124 92,25.182598227915687 92,25.052915966765376 C 92,24.923233705615065 91.8,24.101912718329697 92,23.97223045717936 C 92.2,23.842548196029025 92.8,24.31804982024683 93,24.4045046610137 C 93.2,24.49095950178057 93,24.31804982024681 93,24.4045046610137 C 93,24.49095950178059 92.8,24.75032402408126 93,24.83677886484815 C 93.2,24.92323370561504 93.8,24.83677886484815 94,24.83677886484815 C 94.2,24.83677886484815 94,24.707096603697835 94,24.83677886484815 C 94,24.966461125998464 93.8,25.398735329832824 94,25.485190170599715 C 94.2,25.571645011366606 94.8,25.35550790944947 95,25.269053068682602 C 95.2,25.182598227915733 95,25.09614338714882 95,25.052915966765376 C 95,25.00968854638193 94.8,25.052915966765376 95,25.052915966765376 C 95.2,25.052915966765376 95.8,25.052915966765376 96,25.052915966765376 C 96.2,25.052915966765376 96,25.18259822791571 96,25.052915966765376 C 96,24.92323370561504 95.8,24.534186922164036 96,24.4045046610137 C 96.2,24.274822399863364 96.8,24.274822399863364 97,24.4045046610137 C 97.2,24.534186922164036 97,24.79355144446473 97,25.052915966765376 C 97,25.312280489066023 96.8,25.571645011366627 97,25.70132727251694 C 97.2,25.831009533667256 97.8,25.744554692900387 98,25.70132727251694 C 98.2,25.658099852133496 98,25.485190170599715 98,25.485190170599715 C 98,25.485190170599715 97.8,25.52841759098318 98,25.70132727251694 C 98.2,25.8742369540507 98.8,26.09037405596786 99,26.349738578268507 C 99.2,26.609103100569154 99,26.868467622869847 99,26.998149884020183" stroke-width="1.7" class="SparkLine__Path-sc-9wg5ja-1 jTdHd"/></svg>